SourceHebrewSans_0.ufo
<glyph name="z" format="2">
	<unicode hex="007A"/>
	<advance width="396"/>
	<outline>
		<contour>
			<point x="26" y="0" type="line"/>
			<point x="370" y="0" type="line"/>
			<point x="370" y="28" type="line"/>
			<point x="66" y="28" type="line"/>
			<point x="360" y="462" type="line"/>
			<point x="360" y="478" type="line"/>
			<point x="58" y="478" type="line"/>
			<point x="58" y="450" type="line"/>
			<point x="320" y="450" type="line"/>
			<point x="26" y="16" type="line"/>
		</contour>
	</outline>
	<anchor name="aboveLC" x="216" y="500"/>
	<anchor name="belowLC" x="214" y="-20"/>
	<anchor name="baseLC" x="198" y="0"/>
</glyph>
<glyph name="dotlessi" format="2">
	<unicode hex="0131"/>
	<advance width="222"/>
	<outline>
		<contour>
			<point x="96" y="0" type="line"/>
			<point x="126" y="0" type="line"/>
			<point x="126" y="478" type="line"/>
			<point x="96" y="478" type="line"/>
		</contour>
	</outline>
	<anchor name="aboveLC" x="112" y="500"/>
	<anchor name="belowLC" x="110" y="-20"/>
	<anchor name="ogonekLC" x="130" y="0"/>
	<anchor name="baseLC" x="111" y="0"/>
</glyph>
<glyph name="heHatafQamats" format="2">
	<unicode hex="05B3"/>
	<outline>
		<contour>
			<point x="98" y="-155" type="curve" smooth="yes"/>
			<point x="118" y="-155"/>
			<point x="133" y="-140"/>
			<point x="133" y="-120" type="curve" smooth="yes"/>
			<point x="133" y="-100"/>
			<point x="118" y="-85"/>
			<point x="98" y="-85" type="curve" smooth="yes"/>
			<point x="78" y="-85"/>
			<point x="63" y="-100"/>
			<point x="63" y="-120" type="curve" smooth="yes"/>
			<point x="63" y="-140"/>
			<point x="78" y="-155"/>
		</contour>
		<contour>
			<point x="98" y="-276" type="curve" smooth="yes"/>
			<point x="118" y="-276"/>
			<point x="133" y="-261"/>
			<point x="133" y="-241" type="curve" smooth="yes"/>
			<point x="133" y="-221"/>
			<point x="118" y="-206"/>
			<point x="98" y="-206" type="curve" smooth="yes"/>
			<point x="78" y="-206"/>
			<point x="63" y="-221"/>
			<point x="63" y="-241" type="curve" smooth="yes"/>
			<point x="63" y="-261"/>
			<point x="78" y="-276"/>
		</contour>
		<component base="downtackbelowcmb" xOffset="-60"/>
	</outline>
	<anchor name="_belowPrimaryHE" x="0" y="-30"/>
	<anchor name="_belowLeftHE" x="-130" y="-30"/>
	<anchor name="belowPrimaryHE" x="-190" y="-30"/>
	<anchor name="_belowSecondaryHE" x="50" y="-30"/>
	<guideline x="-127" y="0" angle="90" identifier="ZAKaE6JjJC"/>
</glyph>
<glyph name="heSegol" format="2">
	<unicode hex="05B6"/>
	<outline>
		<contour>
			<point x="-61" y="-155" type="curve" smooth="yes"/>
			<point x="-41" y="-155"/>
			<point x="-26" y="-140"/>
			<point x="-26" y="-120" type="curve" smooth="yes"/>
			<point x="-26" y="-100"/>
			<point x="-41" y="-85"/>
			<point x="-61" y="-85" type="curve" smooth="yes"/>
			<point x="-81" y="-85"/>
			<point x="-96" y="-100"/>
			<point x="-96" y="-120" type="curve" smooth="yes"/>
			<point x="-96" y="-140"/>
			<point x="-81" y="-155"/>
		</contour>
		<contour>
			<point x="61" y="-155" type="curve" smooth="yes"/>
			<point x="81" y="-155"/>
			<point x="96" y="-140"/>
			<point x="96" y="-120" type="curve" smooth="yes"/>
			<point x="96" y="-100"/>
			<point x="81" y="-85"/>
			<point x="61" y="-85" type="curve" smooth="yes"/>
			<point x="41" y="-85"/>
			<point x="26" y="-100"/>
			<point x="26" y="-120" type="curve" smooth="yes"/>
			<point x="26" y="-140"/>
			<point x="41" y="-155"/>
		</contour>
		<contour>
			<point x="0" y="-265" type="curve" smooth="yes"/>
			<point x="20" y="-265"/>
			<point x="35" y="-250"/>
			<point x="35" y="-230" type="curve" smooth="yes"/>
			<point x="35" y="-210"/>
			<point x="20" y="-195"/>
			<point x="0" y="-195" type="curve" smooth="yes"/>
			<point x="-20" y="-195"/>
			<point x="-35" y="-210"/>
			<point x="-35" y="-230" type="curve" smooth="yes"/>
			<point x="-35" y="-250"/>
			<point x="-20" y="-265"/>
		</contour>
	</outline>
	<anchor name="_belowPrimaryHE" x="0" y="-30"/>
	<anchor name="_belowLeftHE" x="-85" y="-30"/>
	<anchor name="_belowRightHE" x="85" y="-30"/>
	<anchor name="belowPrimaryHE" x="-160" y="-30"/>
	<anchor name="_belowSecondaryHE" x="0" y="-30"/>
</glyph>
<glyph name="heDagesh" format="2">
	<unicode hex="05BC"/>
	<outline>
		<contour>
			<point x="0" y="250" type="curve" smooth="yes"/>
			<point x="20" y="250"/>
			<point x="35" y="265"/>
			<point x="35" y="285" type="curve" smooth="yes"/>
			<point x="35" y="305"/>
			<point x="20" y="320"/>
			<point x="0" y="320" type="curve" smooth="yes"/>
			<point x="-20" y="320"/>
			<point x="-35" y="305"/>
			<point x="-35" y="285" type="curve" smooth="yes"/>
			<point x="-35" y="265"/>
			<point x="-20" y="250"/>
		</contour>
	</outline>
	<anchor name="_centerHE" x="0" y="285"/>
	<anchor name="centerSecondaryHE" x="0" y="235"/>
	<anchor name="_centerSecondaryHE" x="0" y="375"/>
	<guideline x="0" y="285" angle="0" identifier="znpAucETLd"/>
</glyph>
<glyph name="heQamatsQatan" format="2">
	<unicode hex="05C7"/>
	<outline>
		<contour>
			<point x="-21" y="-295" type="line"/>
			<point x="21" y="-295" type="line"/>
			<point x="17" y="-128" type="line"/>
			<point x="85" y="-128" type="line"/>
			<point x="85" y="-89" type="line"/>
			<point x="-87" y="-89" type="line"/>
			<point x="-87" y="-128" type="line"/>
			<point x="-17" y="-128" type="line"/>
		</contour>
	</outline>
	<anchor name="_belowPrimaryHE" x="0" y="-30"/>
	<anchor name="_belowLeftHE" x="-95" y="-30"/>
	<anchor name="_belowRightHE" x="95" y="-30"/>
	<anchor name="belowPrimaryHE" x="-140" y="-30"/>
	<anchor name="_belowSecondaryHE" x="0" y="-30"/>
	<guideline x="0" y="46" angle="0" identifier="0QQY0Nsl6b"/>
</glyph>
<glyph name="heAlef" format="2">
	<unicode hex="05D0"/>
	<advance width="592"/>
	<outline>
		<contour>
			<point x="408" y="170" type="line"/>
			<point x="476" y="266"/>
			<point x="534" y="378"/>
			<point x="534" y="448" type="curve" smooth="yes"/>
			<point x="534" y="519"/>
			<point x="504" y="546"/>
			<point x="440" y="546" type="curve" smooth="yes"/>
			<point x="364" y="546" type="line"/>
			<point x="364" y="516" type="line"/>
			<point x="426" y="516" type="line" smooth="yes"/>
			<point x="481" y="516"/>
			<point x="506" y="501"/>
			<point x="506" y="450" type="curve" smooth="yes"/>
			<point x="506" y="390"/>
			<point x="458" y="284"/>
			<point x="384" y="188" type="curve"/>
		</contour>
		<contour>
			<point x="100" y="0" type="curve"/>
			<point x="132" y="0" type="line"/>
			<point x="130" y="29"/>
			<point x="128" y="57"/>
			<point x="128" y="82" type="curve" smooth="yes"/>
			<point x="128" y="243"/>
			<point x="160" y="339"/>
			<point x="205" y="439" type="curve"/>
			<point x="184" y="457" type="line"/>
			<point x="132" y="355"/>
			<point x="98" y="252"/>
			<point x="98" y="84" type="curve" smooth="yes"/>
			<point x="98" y="56"/>
			<point x="98" y="29"/>
		</contour>
		<contour>
			<point x="536" y="-12" type="curve"/>
			<point x="566" y="0" type="line"/>
			<point x="409" y="175"/>
			<point x="248" y="367"/>
			<point x="134" y="548" type="curve"/>
			<point x="104" y="536" type="line"/>
			<point x="221" y="350"/>
			<point x="382" y="158"/>
		</contour>
	</outline>
	<anchor name="aboveHE" x="265" y="590"/>
	<anchor name="belowPrimaryHE" x="300" y="-30"/>
	<anchor name="aboveLeftHE" x="-20" y="590"/>
	<anchor name="centerHE" x="245" y="115"/>
</glyph>
<glyph name="heGimel" format="2">
	<unicode hex="05D2"/>
	<advance width="370"/>
	<outline>
		<contour>
			<point x="264" y="0" type="line"/>
			<point x="292" y="0" type="line"/>
			<point x="258" y="426" type="line"/>
			<point x="252" y="514"/>
			<point x="236" y="538"/>
			<point x="178" y="546" type="curve" smooth="yes"/>
			<point x="94" y="558" type="line"/>
			<point x="88" y="528" type="line"/>
			<point x="168" y="518" type="line" smooth="yes"/>
			<point x="218" y="512"/>
			<point x="226" y="491"/>
			<point x="232" y="426" type="curve"/>
		</contour>
		<contour>
			<point x="48" y="-8" type="line"/>
			<point x="160" y="-2"/>
			<point x="256" y="84"/>
			<point x="264" y="156" type="curve"/>
			<point x="254" y="178" type="line"/>
			<point x="240" y="96"/>
			<point x="148" y="30"/>
			<point x="54" y="22" type="curve"/>
		</contour>
	</outline>
	<anchor name="aboveHE" x="175" y="590"/>
	<anchor name="belowPrimaryHE" x="160" y="-30"/>
	<anchor name="centerHE" x="115" y="300"/>
	<anchor name="aboveLeftHE" x="20" y="590"/>
	<anchor name="belowPrimaryHECXT" x="200" y="-30"/>
</glyph>
<glyph name="heDalet" format="2">
	<unicode hex="05D3"/>
	<advance width="512"/>
	<outline>
		<contour>
			<point x="4" y="516" type="line"/>
			<point x="456" y="516" type="line"/>
			<point x="456" y="546" type="line"/>
			<point x="4" y="546" type="line"/>
		</contour>
		<contour>
			<point x="324" y="0" type="line"/>
			<point x="352" y="0" type="line"/>
			<point x="352" y="516" type="line"/>
			<point x="330" y="516" type="line"/>
			<point x="324" y="490"/>
			<point x="324" y="462"/>
			<point x="324" y="426" type="curve" smooth="yes"/>
		</contour>
	</outline>
	<anchor name="aboveHE" x="235" y="590"/>
	<anchor name="belowSecondaryHE" x="340" y="-30"/>
	<anchor name="centerHE" x="175" y="255"/>
	<anchor name="aboveLeftHE" x="0" y="590"/>
</glyph>
<glyph name="heHe" format="2">
	<unicode hex="05D4"/>
	<advance width="642"/>
	<outline>
		<contour>
			<point x="512" y="0" type="line"/>
			<point x="540" y="0" type="line"/>
			<point x="540" y="350" type="line" smooth="yes"/>
			<point x="540" y="494"/>
			<point x="471" y="546"/>
			<point x="364" y="546" type="curve" smooth="yes"/>
			<point x="94" y="546" type="line"/>
			<point x="94" y="516" type="line"/>
			<point x="358" y="516" type="line" smooth="yes"/>
			<point x="452" y="516"/>
			<point x="512" y="475"/>
			<point x="512" y="344" type="curve" smooth="yes"/>
		</contour>
		<contour>
			<point x="114" y="0" type="line"/>
			<point x="142" y="0" type="line"/>
			<point x="142" y="336" type="line"/>
			<point x="120" y="336" type="line"/>
			<point x="114" y="310"/>
			<point x="114" y="282"/>
			<point x="114" y="246" type="curve" smooth="yes"/>
		</contour>
	</outline>
	<anchor name="aboveHE" x="295" y="590"/>
	<anchor name="belowPrimaryHE" x="305" y="-30"/>
	<anchor name="centerHE" x="305" y="255"/>
	<anchor name="aboveLeftHE" x="0" y="590"/>
</glyph>
<glyph name="heVav" format="2">
	<unicode hex="05D5"/>
	<advance width="276"/>
	<outline>
		<contour>
			<point x="146" y="0" type="line"/>
			<point x="174" y="0" type="line"/>
			<point x="174" y="390" type="line" smooth="yes"/>
			<point x="174" y="514"/>
			<point x="130" y="546"/>
			<point x="38" y="546" type="curve" smooth="yes"/>
			<point x="4" y="546" type="line"/>
			<point x="4" y="516" type="line"/>
			<point x="32" y="516" type="line" smooth="yes"/>
			<point x="110" y="516"/>
			<point x="146" y="495"/>
			<point x="146" y="384" type="curve" smooth="yes"/>
		</contour>
	</outline>
	<anchor name="aboveHE" x="110" y="590"/>
	<anchor name="belowSecondaryHE" x="170" y="-30"/>
	<anchor name="centerHE" x="55" y="255"/>
	<anchor name="holamHE" x="0" y="590"/>
	<anchor name="aboveLeftHE" x="110" y="560"/>
</glyph>
<glyph name="heZayin" format="2">
	<unicode hex="05D6"/>
	<advance width="312"/>
	<outline>
		<contour>
			<point x="4" y="516" type="line"/>
			<point x="268" y="516" type="line"/>
			<point x="268" y="546" type="line"/>
			<point x="4" y="546" type="line"/>
		</contour>
		<contour>
			<point x="146" y="0" type="line"/>
			<point x="174" y="0" type="line"/>
			<point x="174" y="516" type="line"/>
			<point x="152" y="516" type="line"/>
			<point x="146" y="490"/>
			<point x="146" y="462"/>
			<point x="146" y="426" type="curve" smooth="yes"/>
		</contour>
	</outline>
	<anchor name="aboveHE" x="140" y="580"/>
	<anchor name="belowPrimaryHE" x="150" y="-30"/>
	<anchor name="centerHE" x="30" y="260"/>
	<anchor name="aboveLeftHE" x="0" y="590"/>
</glyph>
<glyph name="heHet" format="2">
	<unicode hex="05D7"/>
	<advance width="656"/>
	<outline>
		<contour>
			<point x="526" y="0" type="line"/>
			<point x="554" y="0" type="line"/>
			<point x="554" y="350" type="line" smooth="yes"/>
			<point x="554" y="494"/>
			<point x="485" y="546"/>
			<point x="378" y="546" type="curve" smooth="yes"/>
			<point x="34" y="546" type="line"/>
			<point x="34" y="516" type="line"/>
			<point x="372" y="516" type="line" smooth="yes"/>
			<point x="466" y="516"/>
			<point x="526" y="475"/>
			<point x="526" y="344" type="curve" smooth="yes"/>
		</contour>
		<contour>
			<point x="114" y="0" type="line"/>
			<point x="142" y="0" type="line"/>
			<point x="142" y="516" type="line"/>
			<point x="120" y="516" type="line"/>
			<point x="114" y="490"/>
			<point x="114" y="462"/>
			<point x="114" y="426" type="curve" smooth="yes"/>
		</contour>
	</outline>
	<anchor name="aboveHE" x="305" y="590"/>
	<anchor name="belowPrimaryHE" x="315" y="-30"/>
	<anchor name="centerHE" x="320" y="255"/>
	<anchor name="aboveLeftHE" x="0" y="590"/>
</glyph>
<glyph name="heTet" format="2">
	<unicode hex="05D8"/>
	<advance width="590"/>
	<outline>
		<contour>
			<point x="304" y="-12" type="curve" smooth="yes"/>
			<point x="427" y="-12"/>
			<point x="532" y="98"/>
			<point x="532" y="360" type="curve" smooth="yes"/>
			<point x="532" y="500"/>
			<point x="486" y="546"/>
			<point x="392" y="546" type="curve" smooth="yes"/>
			<point x="332" y="546" type="line"/>
			<point x="332" y="514" type="line"/>
			<point x="388" y="514" type="line" smooth="yes"/>
			<point x="468" y="514"/>
			<point x="504" y="480"/>
			<point x="504" y="360" type="curve" smooth="yes"/>
			<point x="504" y="117"/>
			<point x="403" y="20"/>
			<point x="304" y="20" type="curve" smooth="yes"/>
			<point x="201" y="20"/>
			<point x="134" y="119"/>
			<point x="134" y="276" type="curve" smooth="yes"/>
			<point x="134" y="420" type="line" smooth="yes"/>
			<point x="134" y="520"/>
			<point x="102" y="546"/>
			<point x="38" y="546" type="curve" smooth="yes"/>
			<point x="24" y="546" type="line"/>
			<point x="24" y="516" type="line"/>
			<point x="32" y="516" type="line" smooth="yes"/>
			<point x="82" y="516"/>
			<point x="106" y="498"/>
			<point x="106" y="414" type="curve" smooth="yes"/>
			<point x="106" y="276" type="line" smooth="yes"/>
			<point x="106" y="100"/>
			<point x="188" y="-12"/>
		</contour>
	</outline>
	<anchor name="aboveHE" x="315" y="590"/>
	<anchor name="belowPrimaryHE" x="325" y="-30"/>
	<anchor name="centerHE" x="315" y="300"/>
	<anchor name="aboveLeftHE" x="0" y="590"/>
</glyph>
<glyph name="heKafFin" format="2">
	<unicode hex="05DA"/>
	<advance width="494"/>
	<outline>
		<contour>
			<point x="364" y="-200" type="line"/>
			<point x="392" y="-200" type="line"/>
			<point x="392" y="350" type="line" smooth="yes"/>
			<point x="392" y="494"/>
			<point x="323" y="546"/>
			<point x="216" y="546" type="curve" smooth="yes"/>
			<point x="4" y="546" type="line"/>
			<point x="4" y="516" type="line"/>
			<point x="210" y="516" type="line" smooth="yes"/>
			<point x="304" y="516"/>
			<point x="364" y="475"/>
			<point x="364" y="344" type="curve" smooth="yes"/>
		</contour>
	</outline>
	<anchor name="aboveHE" x="190" y="590"/>
	<anchor name="centerSecondaryHE" x="170" y="390"/>
	<anchor name="aboveLeftHE" x="-10" y="590"/>
	<anchor name="belowPrimaryHE" x="170" y="-30"/>
</glyph>
<glyph name="heKaf" format="2">
	<unicode hex="05DB"/>
	<advance width="526"/>
	<outline>
		<contour>
			<point x="54" y="0" type="line"/>
			<point x="408" y="0" type="line"/>
			<point x="420" y="98"/>
			<point x="430" y="190"/>
			<point x="430" y="300" type="curve" smooth="yes"/>
			<point x="430" y="480"/>
			<point x="358" y="546"/>
			<point x="222" y="546" type="curve" smooth="yes"/>
			<point x="74" y="546" type="line"/>
			<point x="74" y="516" type="line"/>
			<point x="216" y="516" type="line" smooth="yes"/>
			<point x="340" y="516"/>
			<point x="402" y="464"/>
			<point x="402" y="294" type="curve" smooth="yes"/>
			<point x="402" y="196"/>
			<point x="394" y="116"/>
			<point x="383" y="30" type="curve"/>
			<point x="54" y="30" type="line"/>
		</contour>
	</outline>
	<anchor name="aboveHE" x="230" y="590"/>
	<anchor name="belowPrimaryHE" x="220" y="-30"/>
	<anchor name="centerHE" x="210" y="285"/>
	<anchor name="aboveLeftHE" x="15" y="590"/>
</glyph>
<glyph name="heLamed" format="2">
	<unicode hex="05DC"/>
	<advance width="456"/>
	<outline>
		<contour>
			<point x="102" y="-12" type="line"/>
			<point x="336" y="104"/>
			<point x="398" y="262"/>
			<point x="398" y="396" type="curve" smooth="yes"/>
			<point x="398" y="500"/>
			<point x="358" y="546"/>
			<point x="236" y="546" type="curve" smooth="yes"/>
			<point x="76" y="546" type="line"/>
			<point x="76" y="720" type="line"/>
			<point x="48" y="720" type="line"/>
			<point x="48" y="516" type="line"/>
			<point x="230" y="516" type="line" smooth="yes"/>
			<point x="330" y="516"/>
			<point x="370" y="490"/>
			<point x="370" y="398" type="curve" smooth="yes"/>
			<point x="370" y="270"/>
			<point x="320" y="130"/>
			<point x="86" y="14" type="curve"/>
		</contour>
	</outline>
	<anchor name="aboveHE" x="200" y="590"/>
	<anchor name="belowLeftHE" x="110" y="-30"/>
	<anchor name="centerHE" x="160" y="315"/>
	<anchor name="aboveLeftHE" x="-80" y="590"/>
</glyph>
<glyph name="heMemFin" format="2">
	<unicode hex="05DD"/>
	<advance width="636"/>
	<outline>
		<contour>
			<point x="132" y="0" type="line"/>
			<point x="534" y="0" type="line"/>
			<point x="534" y="350" type="line" smooth="yes"/>
			<point x="534" y="494"/>
			<point x="465" y="546"/>
			<point x="358" y="546" type="curve" smooth="yes"/>
			<point x="34" y="546" type="line"/>
			<point x="34" y="516" type="line"/>
			<point x="352" y="516" type="line" smooth="yes"/>
			<point x="446" y="516"/>
			<point x="506" y="475"/>
			<point x="506" y="344" type="curve" smooth="yes"/>
			<point x="506" y="30" type="line"/>
			<point x="132" y="30" type="line"/>
		</contour>
		<contour>
			<point x="114" y="0" type="line"/>
			<point x="142" y="0" type="line"/>
			<point x="142" y="516" type="line"/>
			<point x="120" y="516" type="line"/>
			<point x="114" y="490"/>
			<point x="114" y="462"/>
			<point x="114" y="426" type="curve" smooth="yes"/>
		</contour>
	</outline>
	<anchor name="aboveHE" x="320" y="590"/>
	<anchor name="belowPrimaryHE" x="330" y="-30"/>
	<anchor name="centerHE" x="330" y="285"/>
	<anchor name="aboveLeftHE" x="0" y="590"/>
</glyph>
<glyph name="heSamekh" format="2">
	<unicode hex="05E1"/>
	<advance width="606"/>
	<outline>
		<contour>
			<point x="314" y="-12" type="curve" smooth="yes"/>
			<point x="440" y="-12"/>
			<point x="548" y="117"/>
			<point x="548" y="316" type="curve" smooth="yes"/>
			<point x="548" y="467"/>
			<point x="459" y="546"/>
			<point x="310" y="546" type="curve" smooth="yes"/>
			<point x="94" y="546" type="line"/>
			<point x="94" y="516" type="line"/>
			<point x="304" y="516" type="line" smooth="yes"/>
			<point x="442" y="516"/>
			<point x="518" y="449"/>
			<point x="518" y="316" type="curve" smooth="yes"/>
			<point x="518" y="135"/>
			<point x="426" y="22"/>
			<point x="314" y="22" type="curve" smooth="yes"/>
			<point x="210" y="22"/>
			<point x="122" y="124"/>
			<point x="122" y="286" type="curve" smooth="yes"/>
			<point x="122" y="404"/>
			<point x="196" y="516"/>
			<point x="302" y="516" type="curve"/>
			<point x="302" y="536" type="line"/>
			<point x="172" y="536"/>
			<point x="92" y="416"/>
			<point x="92" y="286" type="curve" smooth="yes"/>
			<point x="92" y="101"/>
			<point x="196" y="-12"/>
		</contour>
	</outline>
	<anchor name="aboveHE" x="305" y="590"/>
	<anchor name="belowPrimaryHE" x="315" y="-30"/>
	<anchor name="centerHE" x="325" y="300"/>
	<anchor name="aboveLeftHE" x="0" y="590"/>
</glyph>
<glyph name="heAyin" format="2">
	<unicode hex="05E2"/>
	<advance width="566"/>
	<outline>
		<contour>
			<point x="219" y="16" type="curve"/>
			<point x="246" y="22" type="line"/>
			<point x="222" y="208"/>
			<point x="152" y="421"/>
			<point x="92" y="552" type="curve"/>
			<point x="62" y="546" type="line"/>
			<point x="124" y="411"/>
			<point x="196" y="200"/>
		</contour>
		<contour>
			<point x="54" y="0" type="line"/>
			<point x="142" y="0" type="line" smooth="yes"/>
			<point x="370" y="0"/>
			<point x="508" y="202"/>
			<point x="508" y="380" type="curve" smooth="yes"/>
			<point x="508" y="505"/>
			<point x="462" y="546"/>
			<point x="368" y="546" type="curve" smooth="yes"/>
			<point x="308" y="546" type="line"/>
			<point x="308" y="514" type="line"/>
			<point x="364" y="514" type="line" smooth="yes"/>
			<point x="444" y="514"/>
			<point x="480" y="485"/>
			<point x="480" y="380" type="curve" smooth="yes"/>
			<point x="480" y="214"/>
			<point x="353" y="30"/>
			<point x="138" y="30" type="curve" smooth="yes"/>
			<point x="54" y="30" type="line"/>
		</contour>
	</outline>
	<anchor name="aboveHE" x="265" y="590"/>
	<anchor name="belowPrimaryHE" x="320" y="-30"/>
	<anchor name="aboveLeftHE" x="-10" y="590"/>
</glyph>
<glyph name="hePeFin" format="2">
	<unicode hex="05E3"/>
	<advance width="546"/>
	<outline>
		<contour>
			<point x="444" y="-200" type="line"/>
			<point x="444" y="350" type="line" smooth="yes"/>
			<point x="444" y="494"/>
			<point x="375" y="546"/>
			<point x="268" y="546" type="curve" smooth="yes"/>
			<point x="58" y="546" type="line"/>
			<point x="58" y="516" type="line"/>
			<point x="262" y="516" type="line" smooth="yes"/>
			<point x="356" y="516"/>
			<point x="416" y="475"/>
			<point x="416" y="344" type="curve" smooth="yes"/>
			<point x="416" y="-200" type="line"/>
		</contour>
		<contour>
			<point x="186" y="240" type="curve" smooth="yes"/>
			<point x="226" y="240" type="line"/>
			<point x="226" y="272" type="line"/>
			<point x="190" y="272" type="line" smooth="yes"/>
			<point x="126" y="272"/>
			<point x="84" y="294"/>
			<point x="84" y="370" type="curve" smooth="yes"/>
			<point x="84" y="454"/>
			<point x="146" y="516"/>
			<point x="232" y="516" type="curve"/>
			<point x="232" y="536" type="line"/>
			<point x="130" y="536"/>
			<point x="56" y="464"/>
			<point x="56" y="370" type="curve" smooth="yes"/>
			<point x="56" y="270"/>
			<point x="108" y="240"/>
		</contour>
	</outline>
	<anchor name="aboveHE" x="260" y="590"/>
	<anchor name="belowRightHE" x="340" y="-30"/>
	<anchor name="centerHE" x="295" y="235"/>
	<anchor name="aboveLeftHE" x="20" y="590"/>
</glyph>
<glyph name="heTsadi" format="2">
	<unicode hex="05E6"/>
	<advance width="498"/>
	<outline>
		<contour>
			<point x="50" y="0" type="line"/>
			<point x="452" y="0" type="line"/>
			<point x="458" y="30" type="line"/>
			<point x="50" y="30" type="line"/>
		</contour>
		<contour>
			<point x="436" y="10" type="curve"/>
			<point x="458" y="30" type="line"/>
			<point x="274" y="195"/>
			<point x="143" y="357"/>
			<point x="56" y="548" type="curve"/>
			<point x="26" y="536" type="line"/>
			<point x="117" y="338"/>
			<point x="259" y="163"/>
		</contour>
		<contour>
			<point x="274" y="202" type="line"/>
			<point x="375" y="291"/>
			<point x="444" y="387"/>
			<point x="444" y="448" type="curve" smooth="yes"/>
			<point x="444" y="516"/>
			<point x="420" y="546"/>
			<point x="346" y="546" type="curve" smooth="yes"/>
			<point x="274" y="546" type="line"/>
			<point x="274" y="516" type="line"/>
			<point x="332" y="516" type="line" smooth="yes"/>
			<point x="403" y="516"/>
			<point x="416" y="495"/>
			<point x="416" y="450" type="curve" smooth="yes"/>
			<point x="416" y="388"/>
			<point x="356" y="308"/>
			<point x="246" y="218" type="curve"/>
		</contour>
	</outline>
	<anchor name="aboveHE" x="230" y="590"/>
	<anchor name="belowPrimaryHE" x="240" y="-30"/>
	<anchor name="centerHE" x="135" y="170"/>
	<anchor name="aboveLeftHE" x="-5" y="590"/>
</glyph>
<glyph name="heQof" format="2">
	<unicode hex="05E7"/>
	<advance width="570"/>
	<outline>
		<contour>
			<point x="220" y="-12" type="line"/>
			<point x="454" y="101"/>
			<point x="512" y="262"/>
			<point x="512" y="396" type="curve" smooth="yes"/>
			<point x="512" y="500"/>
			<point x="472" y="546"/>
			<point x="350" y="546" type="curve" smooth="yes"/>
			<point x="94" y="546" type="line"/>
			<point x="94" y="516" type="line"/>
			<point x="344" y="516" type="line" smooth="yes"/>
			<point x="444" y="516"/>
			<point x="484" y="490"/>
			<point x="484" y="398" type="curve" smooth="yes"/>
			<point x="484" y="270"/>
			<point x="437" y="127"/>
			<point x="204" y="14" type="curve"/>
		</contour>
		<contour>
			<point x="114" y="-200" type="line"/>
			<point x="142" y="-200" type="line"/>
			<point x="142" y="336" type="line"/>
			<point x="120" y="336" type="line"/>
			<point x="114" y="310"/>
			<point x="114" y="282"/>
			<point x="114" y="246" type="curve" smooth="yes"/>
		</contour>
	</outline>
	<anchor name="aboveHE" x="285" y="590"/>
	<anchor name="belowLeftHE" x="225" y="-30"/>
	<anchor name="centerHE" x="280" y="305"/>
	<anchor name="aboveLeftHE" x="0" y="590"/>
	<anchor name="belowLeftHECXT" x="290" y="-30"/>
</glyph>
<glyph name="heResh" format="2">
	<unicode hex="05E8"/>
	<advance width="472"/>
	<outline>
		<contour>
			<point x="342" y="0" type="line"/>
			<point x="370" y="0" type="line"/>
			<point x="370" y="360" type="line" smooth="yes"/>
			<point x="370" y="496"/>
			<point x="305" y="545"/>
			<point x="205" y="545" type="curve"/>
			<point x="10" y="545" type="line"/>
			<point x="4" y="515" type="line"/>
			<point x="203" y="515" type="line"/>
			<point x="285" y="515"/>
			<point x="342" y="477"/>
			<point x="342" y="360" type="curve" smooth="yes"/>
		</contour>
	</outline>
	<anchor name="aboveHE" x="170" y="590"/>
	<anchor name="belowSecondaryHE" x="350" y="-30"/>
	<anchor name="centerHE" x="165" y="255"/>
	<anchor name="aboveLeftHE" x="0" y="590"/>
</glyph>
<glyph name="heShin" format="2">
	<unicode hex="05E9"/>
	<advance width="710"/>
	<outline>
		<contour>
			<point x="356" y="-12" type="curve" smooth="yes"/>
			<point x="519" y="-12"/>
			<point x="652" y="151"/>
			<point x="652" y="360" type="curve" smooth="yes"/>
			<point x="652" y="500"/>
			<point x="615" y="546"/>
			<point x="538" y="546" type="curve" smooth="yes"/>
			<point x="498" y="546" type="line"/>
			<point x="498" y="514" type="line"/>
			<point x="534" y="514" type="line" smooth="yes"/>
			<point x="596" y="514"/>
			<point x="624" y="480"/>
			<point x="624" y="360" type="curve" smooth="yes"/>
			<point x="624" y="169"/>
			<point x="500" y="22"/>
			<point x="356" y="22" type="curve" smooth="yes"/>
			<point x="222" y="22"/>
			<point x="134" y="128"/>
			<point x="134" y="316" type="curve" smooth="yes"/>
			<point x="134" y="396" type="line"/>
			<point x="106" y="396" type="line"/>
			<point x="106" y="316" type="line" smooth="yes"/>
			<point x="106" y="108"/>
			<point x="209" y="-12"/>
		</contour>
		<contour>
			<point x="196" y="69" type="line"/>
			<point x="326" y="158"/>
			<point x="414" y="310"/>
			<point x="414" y="428" type="curve" smooth="yes"/>
			<point x="414" y="510"/>
			<point x="391" y="546"/>
			<point x="322" y="546" type="curve" smooth="yes"/>
			<point x="280" y="546" type="line"/>
			<point x="280" y="516" type="line"/>
			<point x="308" y="516" type="line" smooth="yes"/>
			<point x="374" y="516"/>
			<point x="386" y="489"/>
			<point x="386" y="430" type="curve" smooth="yes"/>
			<point x="386" y="323"/>
			<point x="300" y="174"/>
			<point x="180" y="95" type="curve"/>
		</contour>
		<contour>
			<point x="106" y="350" type="line"/>
			<point x="134" y="350" type="line"/>
			<point x="134" y="430" type="line" smooth="yes"/>
			<point x="134" y="522"/>
			<point x="103" y="546"/>
			<point x="38" y="546" type="curve" smooth="yes"/>
			<point x="24" y="546" type="line"/>
			<point x="24" y="516" type="line"/>
			<point x="32" y="516" type="line" smooth="yes"/>
			<point x="82" y="516"/>
			<point x="106" y="501"/>
			<point x="106" y="424" type="curve" smooth="yes"/>
		</contour>
	</outline>
	<anchor name="aboveHE" x="325" y="590"/>
	<anchor name="belowPrimaryHE" x="360" y="-30"/>
	<anchor name="sinHE" x="50" y="560"/>
	<anchor name="centerHE" x="425" y="255"/>
	<anchor name="shinHE" x="520" y="560"/>
	<anchor name="aboveLeftHE" x="-50" y="590"/>
</glyph>
<glyph name="heTav" format="2">
	<unicode hex="05EA"/>
	<advance width="672"/>
	<outline>
		<contour>
			<point x="54" y="0" type="line"/>
			<point x="202" y="0" type="line"/>
			<point x="186" y="130"/>
			<point x="170" y="240"/>
			<point x="170" y="332" type="curve" smooth="yes"/>
			<point x="170" y="412"/>
			<point x="186" y="483"/>
			<point x="210" y="518" type="curve"/>
			<point x="182" y="518" type="line"/>
			<point x="159" y="483"/>
			<point x="142" y="414"/>
			<point x="142" y="334" type="curve" smooth="yes"/>
			<point x="142" y="252"/>
			<point x="158" y="150"/>
			<point x="172" y="30" type="curve"/>
			<point x="54" y="30" type="line"/>
		</contour>
		<contour>
			<point x="542" y="0" type="line"/>
			<point x="570" y="0" type="line"/>
			<point x="570" y="350" type="line" smooth="yes"/>
			<point x="570" y="494"/>
			<point x="501" y="546"/>
			<point x="394" y="546" type="curve" smooth="yes"/>
			<point x="78" y="546" type="line"/>
			<point x="78" y="516" type="line"/>
			<point x="388" y="516" type="line" smooth="yes"/>
			<point x="482" y="516"/>
			<point x="542" y="475"/>
			<point x="542" y="344" type="curve" smooth="yes"/>
		</contour>
	</outline>
	<anchor name="aboveHE" x="315" y="590"/>
	<anchor name="belowPrimaryHE" x="340" y="-30"/>
	<anchor name="centerHE" x="350" y="255"/>
	<anchor name="aboveLeftHE" x="0" y="590"/>
</glyph>
<glyph name="heDagesh.shin" format="2">
	<outline>
		<contour>
			<point x="0" y="320" type="curve" smooth="yes"/>
			<point x="-20" y="320"/>
			<point x="-35" y="305"/>
			<point x="-35" y="285" type="curve" smooth="yes"/>
			<point x="-35" y="265"/>
			<point x="-20" y="250"/>
			<point x="0" y="250" type="curve" smooth="yes"/>
			<point x="20" y="250"/>
			<point x="35" y="265"/>
			<point x="35" y="285" type="curve" smooth="yes"/>
			<point x="35" y="305"/>
			<point x="20" y="320"/>
		</contour>
	</outline>
	<anchor name="_centerHE" x="0" y="285"/>
	<guideline x="0" y="285" angle="0" identifier="0UuHlBomrk"/>
</glyph>
<glyph name="pnHet" format="2">
	<advance width="572"/>
	<outline>
		<contour>
			<point x="444" y="-120" type="line"/>
			<point x="472" y="-120" type="line"/>
			<point x="472" y="510" type="line"/>
			<point x="128" y="510" type="line"/>
			<point x="128" y="630" type="line"/>
			<point x="100" y="630" type="line"/>
			<point x="100" y="0" type="line"/>
			<point x="444" y="0" type="line"/>
		</contour>
		<contour>
			<point x="128" y="288" type="line"/>
			<point x="128" y="480" type="line"/>
			<point x="444" y="480" type="line"/>
			<point x="444" y="288" type="line"/>
		</contour>
		<contour>
			<point x="128" y="30" type="line"/>
			<point x="128" y="258" type="line"/>
			<point x="444" y="258" type="line"/>
			<point x="444" y="30" type="line"/>
		</contour>
	</outline>
</glyph>
<glyph name="pnMem" format="2">
	<advance width="866"/>
	<outline>
		<contour>
			<point x="418" y="176" type="line"/>
			<point x="456" y="176" type="line"/>
			<point x="674" y="432" type="line"/>
			<point x="736" y="514" type="line"/>
			<point x="740" y="514" type="line"/>
			<point x="738" y="465"/>
			<point x="736" y="420"/>
			<point x="736" y="372" type="curve" smooth="yes"/>
			<point x="736" y="-120" type="line"/>
			<point x="766" y="-120" type="line"/>
			<point x="766" y="546" type="line"/>
			<point x="728" y="546" type="line"/>
			<point x="510" y="288" type="line"/>
			<point x="448" y="208" type="line"/>
			<point x="444" y="208" type="line"/>
			<point x="446" y="257"/>
			<point x="448" y="305"/>
			<point x="448" y="354" type="curve" smooth="yes"/>
			<point x="448" y="366" type="line"/>
			<point x="418" y="366" type="line"/>
		</contour>
		<contour>
			<point x="100" y="176" type="line"/>
			<point x="138" y="176" type="line"/>
			<point x="356" y="432" type="line"/>
			<point x="418" y="514" type="line"/>
			<point x="422" y="514" type="line"/>
			<point x="420" y="465"/>
			<point x="418" y="420"/>
			<point x="418" y="372" type="curve" smooth="yes"/>
			<point x="418" y="366" type="line"/>
			<point x="448" y="366" type="line"/>
			<point x="448" y="546" type="line"/>
			<point x="410" y="546" type="line"/>
			<point x="192" y="288" type="line"/>
			<point x="130" y="208" type="line"/>
			<point x="126" y="208" type="line"/>
			<point x="128" y="257"/>
			<point x="130" y="305"/>
			<point x="130" y="354" type="curve" smooth="yes"/>
			<point x="130" y="546" type="line"/>
			<point x="100" y="546" type="line"/>
		</contour>
	</outline>
</glyph>
<glyph name="pnPe" format="2">
	<advance width="564"/>
	<outline>
		<contour>
			<point x="438" y="-120" type="line"/>
			<point x="466" y="-120" type="line"/>
			<point x="466" y="354" type="line" smooth="yes"/>
			<point x="466" y="514"/>
			<point x="373" y="558"/>
			<point x="282" y="558" type="curve" smooth="yes"/>
			<point x="190" y="558"/>
			<point x="98" y="514"/>
			<point x="98" y="354" type="curve" smooth="yes"/>
			<point x="98" y="276" type="line"/>
			<point x="126" y="276" type="line"/>
			<point x="126" y="348" type="line" smooth="yes"/>
			<point x="126" y="485"/>
			<point x="199" y="524"/>
			<point x="282" y="524" type="curve" smooth="yes"/>
			<point x="364" y="524"/>
			<point x="438" y="485"/>
			<point x="438" y="348" type="curve" smooth="yes"/>
		</contour>
	</outline>
</glyph>
<glyph name="pnQof" format="2">
	<advance width="568"/>
	<outline>
		<contour>
			<point x="270" y="-120" type="line"/>
			<point x="298" y="-120" type="line"/>
			<point x="298" y="538" type="line"/>
			<point x="270" y="538" type="line"/>
		</contour>
		<contour>
			<point x="284" y="104" type="curve" smooth="yes"/>
			<point x="416" y="104"/>
			<point x="512" y="193"/>
			<point x="512" y="332" type="curve" smooth="yes"/>
			<point x="512" y="470"/>
			<point x="416" y="558"/>
			<point x="284" y="558" type="curve" smooth="yes"/>
			<point x="151" y="558"/>
			<point x="56" y="470"/>
			<point x="56" y="332" type="curve" smooth="yes"/>
			<point x="56" y="193"/>
			<point x="151" y="104"/>
		</contour>
		<contour>
			<point x="284" y="138" type="curve" smooth="yes"/>
			<point x="165" y="138"/>
			<point x="86" y="213"/>
			<point x="86" y="332" type="curve" smooth="yes"/>
			<point x="86" y="451"/>
			<point x="165" y="524"/>
			<point x="284" y="524" type="curve" smooth="yes"/>
			<point x="402" y="524"/>
			<point x="482" y="451"/>
			<point x="482" y="332" type="curve" smooth="yes"/>
			<point x="482" y="213"/>
			<point x="402" y="138"/>
		</contour>
	</outline>
</glyph>
<glyph name="pnSade" format="2">
	<advance width="498"/>
	<outline>
		<contour>
			<point x="48" y="0" type="line"/>
			<point x="452" y="0" type="line"/>
			<point x="458" y="30" type="line"/>
			<point x="54" y="30" type="line"/>
		</contour>
		<contour>
			<point x="438" y="10" type="curve"/>
			<point x="458" y="30" type="line"/>
			<point x="312" y="197"/>
			<point x="158" y="380"/>
			<point x="50" y="552" type="curve"/>
			<point x="22" y="538" type="line"/>
			<point x="134" y="359"/>
			<point x="300" y="164"/>
		</contour>
		<contour>
			<point x="318" y="170" type="line"/>
			<point x="389" y="277"/>
			<point x="444" y="396"/>
			<point x="444" y="452" type="curve" smooth="yes"/>
			<point x="444" y="516"/>
			<point x="424" y="542"/>
			<point x="366" y="546" type="curve" smooth="yes"/>
			<point x="284" y="552" type="line"/>
			<point x="278" y="522" type="line"/>
			<point x="352" y="518" type="line" smooth="yes"/>
			<point x="406" y="515"/>
			<point x="416" y="496"/>
			<point x="416" y="454" type="curve" smooth="yes"/>
			<point x="416" y="410"/>
			<point x="369" y="292"/>
			<point x="294" y="186" type="curve"/>
		</contour>
	</outline>
</glyph>
<glyph name="pnShin" format="2">
	<advance width="644"/>
	<outline>
		<contour>
			<point x="322" y="-12" type="curve" smooth="yes"/>
			<point x="433" y="-12"/>
			<point x="546" y="45"/>
			<point x="546" y="252" type="curve" smooth="yes"/>
			<point x="546" y="546" type="line"/>
			<point x="520" y="546" type="line"/>
			<point x="520" y="258" type="line" smooth="yes"/>
			<point x="520" y="71"/>
			<point x="426" y="18"/>
			<point x="322" y="18" type="curve" smooth="yes"/>
			<point x="218" y="18"/>
			<point x="126" y="71"/>
			<point x="126" y="258" type="curve" smooth="yes"/>
			<point x="126" y="546" type="line"/>
			<point x="98" y="546" type="line"/>
			<point x="98" y="252" type="line" smooth="yes"/>
			<point x="98" y="45"/>
			<point x="210" y="-12"/>
		</contour>
		<contour>
			<point x="308" y="0" type="line"/>
			<point x="336" y="0" type="line"/>
			<point x="336" y="546" type="line"/>
			<point x="308" y="546" type="line"/>
		</contour>
	</outline>
</glyph>
<glyph name="pnTet" format="2">
	<advance width="568"/>
	<outline>
		<contour>
			<point x="162" y="264" type="line"/>
			<point x="406" y="264" type="line"/>
			<point x="406" y="296" type="line"/>
			<point x="162" y="296" type="line"/>
		</contour>
		<contour>
			<point x="270" y="148" type="line"/>
			<point x="298" y="148" type="line"/>
			<point x="298" y="410" type="line"/>
			<point x="270" y="410" type="line"/>
		</contour>
		<component base="pnAin"/>
	</outline>
</glyph>
<glyph name="pnYod" format="2">
	<advance width="472"/>
	<outline>
		<contour>
			<point x="94" y="266" type="line"/>
			<point x="246" y="266" type="line"/>
			<point x="246" y="298" type="line"/>
			<point x="94" y="298" type="line"/>
		</contour>
		<component base="pnZai"/>
	</outline>
	<guideline x="81" y="390" angle="90" identifier="OeErDl4cQZ"/>
</glyph>
